<?xml version="1.0" standalone="no"?>
<!DOCTYPE svg PUBLIC "-//W3C//DTD SVG 20010904//EN"
 "http://www.w3.org/TR/2001/REC-SVG-20010904/DTD/svg10.dtd">
<svg version="1.0" xmlns="http://www.w3.org/2000/svg"
 width="127.000000pt" height="192.000000pt" viewBox="0 0 127.000000 192.000000"
 preserveAspectRatio="xMidYMid meet">

<g transform="translate(0.000000,192.000000) scale(0.100000,-0.100000)"
fill="#000000" stroke="none">
<path d="M0 960 l0 -960 635 0 635 0 0 960 0 960 -635 0 -635 0 0 -960z m1192
920 c15 -11 28 -34 31 -52 13 -84 -37 -286 -123 -491 l-38 -92 19 -31 c34 -56
60 -147 64 -229 l5 -80 -18 55 c-21 61 -62 143 -89 178 l-18 22 -64 -121
c-281 -542 -657 -1009 -812 -1009 -33 0 -41 4 -55 32 -21 41 -15 148 16 263
19 73 109 313 128 342 5 8 17 -1 38 -26 l31 -37 -14 -69 c-14 -70 -11 -129 9
-152 6 -7 23 -13 37 -13 120 0 422 387 576 737 54 124 55 122 -53 171 -148 69
-326 60 -467 -22 -94 -56 -190 -183 -221 -295 l-12 -46 -1 66 c-2 172 106 342
272 424 58 28 94 39 168 48 l94 11 60 80 c96 129 270 300 335 330 66 31 71 31
102 6z"/>
<path d="M923 1540 c-39 -17 -123 -85 -123 -99 0 -4 21 -15 48 -24 26 -10 70
-35 98 -56 l51 -39 12 50 c6 27 11 71 11 97 0 77 -32 100 -97 71z"/>
</g>
</svg>
